<?xml version="1.0" standalone="no"?>
<!DOCTYPE svg PUBLIC "-//W3C//DTD SVG 20010904//EN"
 "http://www.w3.org/TR/2001/REC-SVG-20010904/DTD/svg10.dtd">
<svg version="1.0" xmlns="http://www.w3.org/2000/svg"
 width="128.000000pt" height="128.000000pt" viewBox="0 0 128.000000 128.000000"
 preserveAspectRatio="xMidYMid meet">

<g transform="translate(0.000000,128.000000) scale(0.100000,-0.100000)"
fill="#000000" stroke="none">
<path d="M516 1217 c-33 -113 -78 -209 -174 -366 -109 -179 -145 -252 -167
-336 -27 -105 -14 -229 34 -323 41 -80 155 -164 255 -187 l29 -6 -30 34 c-56
64 -78 123 -78 212 0 71 5 89 39 164 21 47 46 106 56 133 l17 48 28 -30 c16
-16 38 -59 50 -95 l22 -66 23 48 c48 102 62 157 69 272 l6 115 66 -72 c113
-122 169 -254 169 -397 0 -131 -37 -231 -118 -317 -45 -49 -46 -49 -17 -42
158 38 263 129 302 263 12 42 14 84 11 185 -5 111 -10 145 -36 226 -66 200
-200 373 -397 512 -38 27 -86 58 -105 68 l-35 18 -19 -61z"/>
</g>
</svg>
